<?xml version="1.0" standalone="no"?>
<!DOCTYPE svg PUBLIC "-//W3C//DTD SVG 20010904//EN"
 "http://www.w3.org/TR/2001/REC-SVG-20010904/DTD/svg10.dtd">
<svg version="1.0" xmlns="http://www.w3.org/2000/svg"
 width="105.000000pt" height="102.000000pt" viewBox="0 0 105.000000 102.000000"
 preserveAspectRatio="xMidYMid meet">

<g transform="translate(0.000000,102.000000) scale(0.100000,-0.100000)"
fill="#000000" stroke="none">
<path d="M202 992 c-103 -37 -170 -119 -193 -235 -10 -48 -9 -65 10 -125 37
-123 141 -204 264 -206 50 -1 61 2 78 23 45 55 13 107 -75 121 -62 10 -96 33
-122 82 -65 125 92 263 210 183 l37 -25 29 22 c19 13 45 21 74 22 49 1 49 1
-8 64 -72 79 -202 110 -304 74z"/>
<path d="M471 771 c-16 -16 -19 -43 -25 -252 -6 -196 -4 -244 9 -292 20 -76
62 -137 122 -175 165 -106 376 -33 439 153 21 61 15 165 -14 220 -46 90 -149
157 -243 159 -66 1 -99 -20 -99 -64 0 -44 28 -70 87 -79 85 -13 130 -54 140
-129 7 -55 -19 -107 -72 -137 -51 -30 -93 -32 -146 -4 -72 36 -79 65 -79 337
l0 233 -25 24 c-29 30 -68 32 -94 6z"/>
</g>
</svg>
